<svg width="36" height="36" viewBox="0 0 36 36" fill="none" xmlns="http://www.w3.org/2000/svg">
<g id="account_circle">
<mask id="mask0_176_2162" style="mask-type:alpha" maskUnits="userSpaceOnUse" x="0" y="0" width="36" height="36">
<rect id="Bounding box" width="36" height="36" fill="#D9D9D9"/>
</mask>
<g mask="url(#mask0_176_2162)">
<g id="account_circle_2">
<path d="M8.79438 20.9221C10.0694 20.0388 11.4222 19.3403 12.853 18.8265C14.2837 18.3125 15.8328 18.0556 17.5 18.0556C19.1672 18.0556 20.7162 18.3125 22.147 18.8265C23.5777 19.3403 24.9306 20.0388 26.2056 20.9221C27.1961 19.935 27.9928 18.7694 28.5955 17.4251C29.1985 16.0805 29.5 14.6055 29.5 13C29.5 9.79815 28.3313 7.07176 25.9938 4.82083C23.6563 2.56991 20.825 1.44444 17.5 1.44444C14.175 1.44444 11.3438 2.56991 9.00625 4.82083C6.66875 7.07176 5.5 9.79815 5.5 13C5.5 14.6055 5.8015 16.0805 6.4045 17.4251C7.00725 18.7694 7.80388 19.935 8.79438 20.9221ZM17.5007 13.7222C16.2367 13.7222 15.1706 13.3044 14.3024 12.4688C13.4341 11.6332 13 10.6068 13 9.38961C13 8.17243 13.4339 7.14579 14.3016 6.30969C15.1694 5.4736 16.2353 5.05556 17.4993 5.05556C18.7633 5.05556 19.8294 5.47336 20.6976 6.30897C21.5659 7.14458 22 8.17098 22 9.38817C22 10.6054 21.5661 11.632 20.6984 12.4681C19.8306 13.3042 18.7647 13.7222 17.5007 13.7222ZM17.5 26C15.6173 26 13.8547 25.6625 12.2125 24.9874C10.5702 24.3124 9.14138 23.3898 7.92588 22.2195C6.71063 21.049 5.7525 19.6731 5.0515 18.0917C4.3505 16.5102 4 14.813 4 13C4 11.187 4.3505 9.48976 5.0515 7.90833C5.7525 6.32691 6.71063 4.95095 7.92588 3.78047C9.14138 2.61023 10.5702 1.68759 12.2125 1.01255C13.8547 0.337518 15.6173 0 17.5 0C19.3827 0 21.1453 0.337518 22.7875 1.01255C24.4298 1.68759 25.8586 2.61023 27.0741 3.78047C28.2894 4.95095 29.2475 6.32691 29.9485 7.90833C30.6495 9.48976 31 11.187 31 13C31 14.813 30.6495 16.5102 29.9485 18.0917C29.2475 19.6731 28.2894 21.049 27.0741 22.2195C25.8586 23.3898 24.4298 24.3124 22.7875 24.9874C21.1453 25.6625 19.3827 26 17.5 26ZM17.5 24.5556C18.8827 24.5556 20.2434 24.3226 21.5819 23.8568C22.9201 23.3912 24.0767 22.7537 25.0518 21.9444C24.0767 21.1906 22.9489 20.5948 21.6681 20.1569C20.3874 19.719 18.998 19.5 17.5 19.5C16.002 19.5 14.6077 19.7144 13.3172 20.1431C12.027 20.5719 10.904 21.1723 9.94825 21.9444C10.9232 22.7537 12.0799 23.3912 13.4181 23.8568C14.7566 24.3226 16.1173 24.5556 17.5 24.5556ZM17.5 12.2778C18.3422 12.2778 19.0529 11.9991 19.6319 11.4418C20.2106 10.8842 20.5 10.1999 20.5 9.38889C20.5 8.57783 20.2106 7.89353 19.6319 7.33597C19.0529 6.77866 18.3422 6.5 17.5 6.5C16.6578 6.5 15.9471 6.77866 15.3681 7.33597C14.7894 7.89353 14.5 8.57783 14.5 9.38889C14.5 10.1999 14.7894 10.8842 15.3681 11.4418C15.9471 11.9991 16.6578 12.2778 17.5 12.2778Z" fill="#A4A4A4"/>
<path fill-rule="evenodd" clip-rule="evenodd" d="M8.79438 20.9221C10.0694 20.0388 11.4222 19.3403 12.853 18.8265C14.2837 18.3125 15.8328 18.0556 17.5 18.0556C19.1672 18.0556 20.7162 18.3125 22.147 18.8265C23.5777 19.3403 24.9306 20.0388 26.2056 20.9221C27.1961 19.935 27.9928 18.7694 28.5955 17.4251C29.1985 16.0805 29.5 14.6055 29.5 13C29.5 9.79815 28.3313 7.07176 25.9938 4.82083C23.6563 2.56991 20.825 1.44444 17.5 1.44444C14.175 1.44444 11.3438 2.56991 9.00625 4.82083C6.66875 7.07176 5.5 9.79815 5.5 13C5.5 14.6055 5.8015 16.0805 6.4045 17.4251C7.00725 18.7694 7.80388 19.935 8.79438 20.9221ZM14.3024 12.4688C15.1706 13.3044 16.2367 13.7222 17.5007 13.7222C18.7647 13.7222 19.8306 13.3042 20.6984 12.4681C21.5661 11.632 22 10.6054 22 9.38817C22 8.17098 21.5659 7.14458 20.6976 6.30897C19.8294 5.47336 18.7633 5.05556 17.4993 5.05556C16.2353 5.05556 15.1694 5.4736 14.3016 6.30969C13.4339 7.14579 13 8.17243 13 9.38961C13 10.6068 13.4341 11.6332 14.3024 12.4688Z" fill="#DEDEDE"/>
</g>
</g>
</g>
</svg>
