<svg width="32" height="24" viewBox="0 0 32 24" fill="none" xmlns="http://www.w3.org/2000/svg">
<g id="swipe_down">
<mask id="mask0_188_250" style="mask-type:alpha" maskUnits="userSpaceOnUse" x="0" y="0" width="32" height="24">
<rect id="Bounding box" width="32" height="24" fill="#D9D9D9"/>
</mask>
<g mask="url(#mask0_188_250)">
<g id="swipe_down_2">
<path d="M11.5 14.5438L8.00002 11.4358L9.05002 10.5035L10.8 12.0574C10.7 11.6578 10.625 11.2582 10.575 10.8587C10.525 10.4591 10.5 10.0595 10.5 9.65988C10.5 8.4463 10.725 7.26972 11.175 6.13014C11.625 4.99056 12.275 3.94718 13.125 3L14.2 3.95458C13.4834 4.78337 12.9375 5.68245 12.5625 6.65183C12.1875 7.62122 12 8.6239 12 9.65988C12 10.0447 12.025 10.4258 12.075 10.8032C12.125 11.1806 12.2084 11.5542 12.325 11.9242L13.95 10.5035L15 11.4358L11.5 14.5438ZM23.45 19.7163C23.0667 19.8347 22.6792 19.8902 22.2875 19.8828C21.8959 19.8754 21.5167 19.7903 21.15 19.6275L14.6 16.9191L15.05 16.0312C15.2167 15.7352 15.45 15.4947 15.75 15.3097C16.05 15.1247 16.3834 15.0174 16.75 14.9878L18.45 14.8768L15.65 8.06151C15.55 7.82471 15.5584 7.59902 15.675 7.38442C15.7917 7.16982 15.9834 7.01813 16.25 6.92933C16.5167 6.84053 16.7709 6.84793 17.0125 6.95153C17.2542 7.05513 17.425 7.22532 17.525 7.46212L21.225 16.4974L18.725 16.6528L22 18.0069C22.1167 18.0513 22.2417 18.0772 22.375 18.0846C22.5084 18.092 22.6334 18.0809 22.75 18.0513L26.675 16.7859C27.1917 16.6232 27.5667 16.3161 27.8 15.8647C28.0334 15.4133 28.0584 14.9582 27.875 14.4994L26.5 11.1694C26.4 10.9327 26.4084 10.707 26.525 10.4924C26.6417 10.2778 26.8334 10.1261 27.1 10.0373C27.3667 9.94847 27.6209 9.95587 27.8625 10.0595C28.1042 10.1631 28.275 10.3333 28.375 10.5701L29.75 13.9C30.1334 14.8324 30.0959 15.7389 29.6375 16.6195C29.1792 17.5 28.425 18.1105 27.375 18.4509L23.45 19.7163ZM21.2 13.8334L19.85 10.4813C19.75 10.2445 19.7584 10.0188 19.875 9.80418C19.9917 9.58958 20.1834 9.43788 20.45 9.34908C20.7167 9.26028 20.9709 9.26769 21.2125 9.37128C21.4542 9.47488 21.625 9.64508 21.725 9.88187L23.1 13.2118L21.2 13.8334ZM24.025 12.9232L23 10.4147C22.9 10.1779 22.9084 9.95217 23.025 9.73758C23.1417 9.52298 23.3334 9.37128 23.6 9.28249C23.8667 9.19369 24.1209 9.20109 24.3625 9.30469C24.6042 9.40828 24.775 9.57848 24.875 9.81528L25.9 12.3016L24.025 12.9232Z" fill="#CA8A8A" fill-opacity="0.47"/>
<path d="M5.22456 13.3672C5.67456 14.5068 6.32456 15.5502 7.17456 16.4974L8.24956 15.5428C7.53289 14.714 6.98706 13.8149 6.61206 12.8455C6.23706 11.8761 6.04956 10.8735 6.04956 9.83748C6.04956 9.45268 6.07456 9.07159 6.12456 8.6942C6.17456 8.3168 6.25789 7.94311 6.37456 7.57312L7.99956 8.99389L9.04956 8.06151L5.54956 4.95356L2.04956 8.06151L3.09956 8.99389L4.84956 7.43992C4.74956 7.83951 4.67456 8.2391 4.62456 8.6387C4.57456 9.03829 4.54956 9.43788 4.54956 9.83748C4.54956 11.0511 4.77456 12.2276 5.22456 13.3672Z" fill="#CA8A8A" fill-opacity="0.47"/>
</g>
</g>
</g>
</svg>
